<?xml version="1.0" encoding="UTF-8"?>
<!DOCTYPE svg PUBLIC "-//W3C//DTD SVG 1.1//EN" "http://www.w3.org/Graphics/SVG/1.1/DTD/svg11.dtd">
<svg xmlns="http://www.w3.org/2000/svg" version="1.1" width="474px" height="464px" style="shape-rendering:geometricPrecision; text-rendering:geometricPrecision; image-rendering:optimizeQuality; fill-rule:evenodd; clip-rule:evenodd" xmlns:xlink="http://www.w3.org/1999/xlink">
<g><path style="opacity:1" fill="#fefefe" d="M -0.5,-0.5 C 157.5,-0.5 315.5,-0.5 473.5,-0.5C 473.5,154.167 473.5,308.833 473.5,463.5C 315.5,463.5 157.5,463.5 -0.5,463.5C -0.5,308.833 -0.5,154.167 -0.5,-0.5 Z"/></g>
<g><path style="opacity:1" fill="#3a8220" d="M 248.5,153.5 C 247.345,160.655 247.178,167.988 248,175.5C 248.717,174.956 249.217,174.289 249.5,173.5C 252.101,170.396 254.934,167.396 258,164.5C 259.036,153.596 263.869,144.762 272.5,138C 277.51,134.493 282.843,131.493 288.5,129C 300.413,124.862 312.413,121.029 324.5,117.5C 321.768,138.107 311.434,153.94 293.5,165C 283.25,169.559 272.583,171.226 261.5,170C 256.622,175.209 252.122,180.709 248,186.5C 247.563,204.632 248.896,222.632 252,240.5C 255.75,238.041 259.583,235.708 263.5,233.5C 266.385,214.775 276.385,201.275 293.5,193C 309.701,186.657 326.201,181.157 343,176.5C 339.852,199.562 328.352,217.729 308.5,231C 295.456,237.21 281.79,239.543 267.5,238C 263.018,241.647 258.685,245.481 254.5,249.5C 254.594,269.471 254.427,289.471 254,309.5C 256.963,307.539 259.629,305.206 262,302.5C 264.872,287.634 273.039,276.801 286.5,270C 303.504,262.949 321.171,260.615 339.5,263C 345.923,263.229 352.257,264.063 358.5,265.5C 346.279,280.222 332.613,293.388 317.5,305C 304.525,311.22 290.859,313.22 276.5,311C 273.57,310.394 270.737,309.56 268,308.5C 263,313.833 258,319.167 253,324.5C 250.81,334.066 250.143,343.733 251,353.5C 252.201,365.572 253.867,377.572 256,389.5C 256.785,391.286 257.951,392.786 259.5,394C 262.692,395.357 265.692,396.857 268.5,398.5C 268.291,399.086 267.957,399.586 267.5,400C 253.837,400.5 240.171,400.667 226.5,400.5C 226.351,399.448 226.517,398.448 227,397.5C 230.203,396.23 232.87,394.23 235,391.5C 235.333,376.5 235.667,361.5 236,346.5C 238.287,328.83 240.287,311.164 242,293.5C 235.865,286.364 229.365,279.531 222.5,273C 183.22,279.68 158.72,263.847 149,225.5C 147.001,217.524 146.168,209.524 146.5,201.5C 161.5,211.501 177.5,219.667 194.5,226C 212.307,233.469 223.14,246.636 227,265.5C 232.65,270.315 238.15,275.315 243.5,280.5C 244.665,271.853 244.832,263.186 244,254.5C 241.595,240.93 239.929,227.263 239,213.5C 235.5,209.333 232,205.167 228.5,201C 197.294,204.151 176.46,190.984 166,161.5C 163.698,154.969 162.365,148.303 162,141.5C 175.868,145.789 189.701,150.289 203.5,155C 222.988,161.478 232.488,174.978 232,195.5C 234.04,197.37 235.873,199.37 237.5,201.5C 237.56,202.043 237.893,202.376 238.5,202.5C 239.497,194.862 239.831,187.196 239.5,179.5C 239.614,163.163 241.281,146.997 244.5,131C 242.749,126.919 239.749,123.919 235.5,122C 224.343,112.848 220.843,101.348 225,87.5C 232.34,71.989 242.84,58.989 256.5,48.5C 257.588,54.125 258.421,59.7917 259,65.5C 261.851,76.5233 264.685,87.5233 267.5,98.5C 266.742,111.349 261.242,121.683 251,129.5C 249.471,137.429 248.638,145.429 248.5,153.5 Z"/></g>
<g><path style="opacity:1" fill="#b5d0aa" d="M 248.5,153.5 C 248.176,160.354 248.509,167.021 249.5,173.5C 249.217,174.289 248.717,174.956 248,175.5C 247.178,167.988 247.345,160.655 248.5,153.5 Z"/></g>
<g><path style="opacity:1" fill="#afcca4" d="M 239.5,179.5 C 239.831,187.196 239.497,194.862 238.5,202.5C 237.893,202.376 237.56,202.043 237.5,201.5C 238.167,194.167 238.833,186.833 239.5,179.5 Z"/></g>
</svg>
