<?xml version="1.0" encoding="UTF-8"?>
<svg xmlns="http://www.w3.org/2000/svg" xmlns:xlink="http://www.w3.org/1999/xlink" width="474px" height="464px" viewBox="0 0 237 232" version="1.1">
<g id="surface1">
<path style=" stroke:none;fill-rule:evenodd;fill:rgb(99.607843%,99.607843%,99.607843%);fill-opacity:1;" d="M -0.25 -0.25 C 78.75 -0.25 157.75 -0.25 236.75 -0.25 C 236.75 77.082031 236.75 154.417969 236.75 231.75 C 157.75 231.75 78.75 231.75 -0.25 231.75 C -0.25 154.417969 -0.25 77.082031 -0.25 -0.25 Z M -0.25 -0.25 "/>
<path style=" stroke:none;fill-rule:evenodd;fill:rgb(16.078432%,30.980393%,52.941179%);fill-opacity:1;" d="M 181.25 48.25 C 181.761719 48.449219 181.847656 48.78125 181.5 49.25 C 177.378906 52.503906 174.792969 56.667969 173.75 61.75 C 174.847656 61.71875 175.847656 61.382812 176.75 60.75 C 177.558594 58.960938 178.726562 57.460938 180.25 56.25 C 180.417969 56.332031 180.582031 56.417969 180.75 56.5 C 179.703125 57.5 179.203125 58.582031 179.25 59.75 C 180.839844 58.957031 182.339844 58.207031 183.75 57.5 C 182.566406 58.851562 181.230469 60.019531 179.75 61 C 177.429688 61.828125 175.261719 62.910156 173.25 64.25 C 171.789062 66.230469 171.289062 68.398438 171.75 70.75 C 174.277344 69.324219 176.941406 68.242188 179.75 67.5 C 180.980469 66.277344 182.144531 65.027344 183.25 63.75 C 183.144531 64.523438 183.144531 65.355469 183.25 66.25 C 184.796875 65.433594 186.214844 64.433594 187.5 63.25 C 187.226562 64.546875 186.476562 65.628906 185.25 66.5 C 181.140625 68.46875 176.976562 70.304688 172.75 72 C 168.539062 75.871094 167.625 80.457031 170 85.75 C 171.652344 87.664062 173.738281 88.246094 176.25 87.5 C 179.574219 86.628906 182.492188 85.046875 185 82.75 C 186.433594 79.582031 187.097656 76.25 187 72.75 C 187.925781 74.269531 188.507812 75.9375 188.75 77.75 C 190.992188 75.757812 193.160156 73.675781 195.25 71.5 C 197.585938 69.828125 200.085938 68.414062 202.75 67.25 C 202.917969 67.417969 203.082031 67.582031 203.25 67.75 C 200.023438 70.054688 196.859375 72.472656 193.75 75 C 192.214844 76.699219 190.882812 78.53125 189.75 80.5 C 189.917969 80.75 190.082031 81 190.25 81.25 C 195.96875 77.96875 201.96875 76.96875 208.25 78.25 C 206.101562 78.664062 203.933594 78.914062 201.75 79 C 200.230469 79.175781 198.898438 79.761719 197.75 80.75 C 198.679688 81.597656 199.679688 82.347656 200.75 83 C 203.308594 83.054688 205.808594 83.386719 208.25 84 C 206.886719 84.089844 205.554688 84.339844 204.25 84.75 C 205.675781 86.046875 207.339844 86.964844 209.25 87.5 C 207.300781 87.867188 205.464844 87.535156 203.75 86.5 C 201.75 85.167969 199.75 83.832031 197.75 82.5 C 194.863281 81.34375 192.195312 81.757812 189.75 83.75 C 189.207031 84.183594 189.125 84.683594 189.5 85.25 C 190.917969 86.332031 192.332031 87.417969 193.75 88.5 C 196.546875 88.453125 199.210938 88.953125 201.75 90 C 202.445312 90.445312 202.359375 90.695312 201.5 90.75 C 199.914062 90.144531 198.328125 90.144531 196.75 90.75 C 198.214844 92.316406 199.882812 93.652344 201.75 94.75 C 201.582031 94.917969 201.417969 95.082031 201.25 95.25 C 197.09375 93.34375 193.261719 90.925781 189.75 88 C 187.417969 86.332031 185.082031 86.332031 182.75 88 C 174.929688 94.878906 174.761719 101.878906 182.25 109 C 183.582031 109.332031 184.917969 109.332031 186.25 109 C 189.730469 106.363281 193.5625 104.363281 197.75 103 C 200 102.574219 202.167969 102.824219 204.25 103.75 C 202.101562 104.164062 199.933594 104.414062 197.75 104.5 C 195.828125 104.859375 194.160156 105.695312 192.75 107 C 194.664062 107.871094 196.496094 108.871094 198.25 110 C 200.046875 110.148438 201.796875 109.898438 203.5 109.25 C 204.898438 109.273438 206.148438 109.6875 207.25 110.5 C 205.320312 110.539062 203.488281 110.871094 201.75 111.5 C 203.503906 112.628906 205.335938 113.628906 207.25 114.5 C 205.703125 114.824219 204.203125 114.660156 202.75 114 C 199.644531 112.363281 196.476562 110.863281 193.25 109.5 C 191.917969 109.167969 190.582031 109.167969 189.25 109.5 C 187.269531 111.441406 187.433594 113.273438 189.75 115 C 195.550781 117.359375 200.632812 120.773438 205 125.25 C 206.113281 126.890625 207.027344 128.640625 207.75 130.5 C 207.582031 130.75 207.417969 131 207.25 131.25 C 204.558594 126.726562 200.890625 123.226562 196.25 120.75 C 195.683594 121.535156 195.601562 122.371094 196 123.25 C 197.835938 124.5625 199.003906 126.230469 199.5 128.25 C 198.824219 127.492188 198.074219 126.824219 197.25 126.25 C 197.082031 126.582031 196.917969 126.917969 196.75 127.25 C 197.34375 128.585938 197.761719 129.917969 198 131.25 C 197.085938 130.421875 196.417969 129.421875 196 128.25 C 195.542969 125.296875 194.710938 122.464844 193.5 119.75 C 192.128906 118.4375 190.542969 117.4375 188.75 116.75 C 188.140625 116.945312 187.804688 117.359375 187.75 118 C 188.300781 120.390625 188.71875 122.808594 189 125.25 C 190.824219 127.492188 192.742188 129.65625 194.75 131.75 C 194.582031 131.917969 194.417969 132.082031 194.25 132.25 C 192.917969 131.003906 191.503906 129.835938 190 128.75 C 189.667969 129.25 189.667969 129.75 190 130.25 C 191.007812 132.09375 191.84375 133.929688 192.5 135.75 C 191.5 134.417969 190.5 133.082031 189.5 131.75 C 187.949219 127.714844 186.949219 123.546875 186.5 119.25 C 184.441406 114.59375 180.855469 112.261719 175.75 112.25 C 170.128906 112.777344 166.046875 115.609375 163.5 120.75 C 162.597656 124.707031 163.847656 127.792969 167.25 130 C 170.71875 131.234375 174.050781 132.734375 177.25 134.5 C 179.390625 136.382812 180.808594 138.632812 181.5 141.25 C 179.75 138.832031 177.667969 136.75 175.25 135 C 170.945312 133.679688 166.78125 132.09375 162.75 130.25 C 162.792969 132.722656 163.378906 135.054688 164.5 137.25 C 166.683594 139.628906 169.101562 141.710938 171.75 143.5 C 173.800781 145.214844 175.46875 147.214844 176.75 149.5 C 176.667969 149.75 176.582031 150 176.5 150.25 C 175.042969 148.0625 173.128906 146.394531 170.75 145.25 C 170.582031 145.5 170.417969 145.75 170.25 146 C 170.796875 147.769531 171.214844 149.519531 171.5 151.25 C 169.539062 149.160156 168.539062 146.660156 168.5 143.75 C 167.300781 142.300781 165.886719 141.132812 164.25 140.25 C 163.882812 144.089844 163.464844 147.925781 163 151.75 C 162.792969 153.210938 162.292969 154.542969 161.5 155.75 C 161.871094 152.871094 162.121094 149.953125 162.25 147 C 162.167969 145.582031 162.082031 144.167969 162 142.75 C 161.847656 142.347656 161.597656 142.011719 161.25 141.75 C 158.25 144 155.5 146.5 153 149.25 C 152.917969 149.082031 152.832031 148.917969 152.75 148.75 C 155.238281 145.34375 157.820312 142.011719 160.5 138.75 C 161.136719 134.925781 160.550781 131.34375 158.75 128 C 157.628906 128.097656 156.710938 128.679688 156 129.75 C 155.011719 132.148438 154.347656 134.648438 154 137.25 C 153.605469 138.292969 153.019531 139.210938 152.25 140 C 151.835938 140.34375 151.5 140.261719 151.25 139.75 C 152.71875 137.222656 153.21875 134.554688 152.75 131.75 C 149.8125 134.453125 147.480469 137.621094 145.75 141.25 C 146.632812 135.582031 149.550781 131.082031 154.5 127.75 C 156.96875 123.078125 155.886719 119.492188 151.25 117 C 146.792969 114.929688 142.128906 114.261719 137.25 115 C 115.910156 118.882812 96.578125 127.21875 79.25 140 C 73.679688 145.070312 68.265625 150.320312 63 155.75 C 61.621094 157.425781 60.871094 159.339844 60.75 161.5 C 60.992188 165.148438 61.828125 168.648438 63.25 172 C 63.078125 173.246094 62.414062 173.746094 61.25 173.5 C 60.894531 172.101562 60.5625 170.683594 60.25 169.25 C 59.863281 168.644531 59.445312 168.644531 59 169.25 C 58.976562 171.601562 59.226562 173.933594 59.75 176.25 C 58.75 176.25 57.75 176.25 56.75 176.25 C 56.902344 173.289062 56.738281 170.371094 56.25 167.5 C 55.296875 167.277344 54.710938 167.691406 54.5 168.75 C 54.25 170.742188 54.167969 172.742188 54.25 174.75 C 53.167969 174.941406 52.335938 174.609375 51.75 173.75 C 52.738281 172.394531 52.90625 170.976562 52.25 169.5 C 51.75 169.167969 51.25 169.167969 50.75 169.5 C 49.855469 170.390625 49.019531 171.304688 48.25 172.25 C 47.75 171.582031 47.25 170.917969 46.75 170.25 C 48.3125 169.050781 49.980469 167.964844 51.75 167 C 52.191406 166.320312 52.355469 165.570312 52.25 164.75 C 49.59375 165.328125 47.257812 166.578125 45.25 168.5 C 44.683594 168.875 44.183594 168.792969 43.75 168.25 C 42.9375 167.566406 42.6875 166.730469 43 165.75 C 44.890625 165.128906 46.808594 164.546875 48.75 164 C 49.167969 163.496094 49.335938 162.910156 49.25 162.25 C 47.617188 162.316406 46.117188 162.816406 44.75 163.75 C 43.671875 163.015625 43.503906 162.101562 44.25 161 C 48.992188 160.566406 53.324219 159.066406 57.25 156.5 C 70.476562 138.613281 87.476562 125.613281 108.25 117.5 C 115.015625 115.132812 121.851562 112.96875 128.75 111 C 136.480469 108.4375 141.730469 103.351562 144.5 95.75 C 144.832031 93.25 144.832031 90.75 144.5 88.25 C 143.917969 87 143 86.082031 141.75 85.5 C 138.417969 85.332031 135.082031 85.167969 131.75 85 C 129.613281 84.453125 127.613281 83.621094 125.75 82.5 C 128.007812 83.0625 130.34375 83.476562 132.75 83.75 C 133.582031 83.582031 134.417969 83.417969 135.25 83.25 C 133.425781 81.335938 131.261719 79.921875 128.75 79 C 130.296875 78.675781 131.796875 78.839844 133.25 79.5 C 135.300781 81.78125 137.800781 82.78125 140.75 82.5 C 141.214844 82.304688 141.546875 81.972656 141.75 81.5 C 140.496094 78.742188 138.664062 76.410156 136.25 74.5 C 133.230469 74.332031 130.230469 74 127.25 73.5 C 126.136719 73.21875 125.136719 72.71875 124.25 72 C 127.898438 72.257812 131.5625 72.257812 135.25 72 C 132.632812 68.46875 129.46875 65.550781 125.75 63.25 C 125.917969 63.082031 126.082031 62.917969 126.25 62.75 C 130.167969 64.667969 133.667969 67.167969 136.75 70.25 C 138.574219 66.582031 138.742188 62.832031 137.25 59 C 137.417969 58.25 137.582031 57.5 137.75 56.75 C 138.070312 58.53125 138.65625 60.195312 139.5 61.75 C 140.328125 59.609375 141.078125 57.441406 141.75 55.25 C 142.324219 56.554688 142.410156 57.886719 142 59.25 C 140.796875 63.140625 139.714844 67.054688 138.75 71 C 139.128906 73.589844 140.296875 75.757812 142.25 77.5 C 142.722656 77.742188 143.222656 77.824219 143.75 77.75 C 143.710938 76.363281 143.960938 75.03125 144.5 73.75 C 147.15625 69.0625 147.992188 64.0625 147 58.75 C 148.164062 60.828125 148.75 63.078125 148.75 65.5 C 147.90625 69.617188 146.90625 73.699219 145.75 77.75 C 145.988281 82.257812 148.40625 84.421875 153 84.25 C 158.042969 84.230469 162.042969 82.230469 165 78.25 C 165.332031 77.25 165.332031 76.25 165 75.25 C 162.144531 72.230469 159.476562 69.0625 157 65.75 C 155.398438 63.074219 154.980469 60.242188 155.75 57.25 C 156.328125 61.242188 157.910156 64.742188 160.5 67.75 C 161.289062 65.460938 162.039062 63.128906 162.75 60.75 C 161.390625 58.371094 161.054688 55.871094 161.75 53.25 C 161.992188 55.0625 162.574219 56.730469 163.5 58.25 C 164.324219 56.132812 165.074219 53.964844 165.75 51.75 C 166.21875 53.914062 166.132812 56.078125 165.5 58.25 C 163.722656 62.078125 162.886719 66.078125 163 70.25 C 164.175781 71.507812 165.425781 72.675781 166.75 73.75 C 167.238281 73.511719 167.65625 73.179688 168 72.75 C 169.332031 65.257812 172.164062 58.421875 176.5 52.25 C 177.886719 50.609375 179.472656 49.277344 181.25 48.25 Z M 181.25 48.25 "/>
<path style=" stroke:none;fill-rule:evenodd;fill:rgb(97.647059%,98.039216%,98.823529%);fill-opacity:1;" d="M 156.75 94.75 C 163.996094 94.074219 166.914062 97.242188 165.5 104.25 C 163.644531 107.425781 160.894531 108.675781 157.25 108 C 150.808594 103.777344 150.640625 99.359375 156.75 94.75 Z M 156.75 94.75 "/>
</g>
</svg>
