<?xml version="1.0" encoding="UTF-8"?>
<svg xmlns="http://www.w3.org/2000/svg" xmlns:xlink="http://www.w3.org/1999/xlink" width="474px" height="464px" viewBox="0 0 237 232" version="1.1">
<g id="surface1">
<path style=" stroke:none;fill-rule:evenodd;fill:rgb(99.607843%,99.607843%,99.607843%);fill-opacity:1;" d="M -0.25 -0.25 C 78.75 -0.25 157.75 -0.25 236.75 -0.25 C 236.75 77.082031 236.75 154.417969 236.75 231.75 C 157.75 231.75 78.75 231.75 -0.25 231.75 C -0.25 154.417969 -0.25 77.082031 -0.25 -0.25 Z M -0.25 -0.25 "/>
<path style=" stroke:none;fill-rule:evenodd;fill:rgb(97.254902%,85.09804%,58.039218%);fill-opacity:1;" d="M 122.25 37.25 C 117.992188 37.085938 113.824219 37.253906 109.75 37.75 C 108.855469 37.894531 108.023438 37.726562 107.25 37.25 C 112.328125 36.589844 117.328125 36.589844 122.25 37.25 Z M 122.25 37.25 "/>
<path style=" stroke:none;fill-rule:evenodd;fill:rgb(96.470588%,81.176472%,46.666667%);fill-opacity:1;" d="M 109.75 37.75 C 113.824219 37.253906 117.992188 37.085938 122.25 37.25 C 131.394531 37.183594 140.394531 38.269531 149.25 40.5 C 153.234375 41.199219 156.484375 43.117188 159 46.25 C 160.144531 49.097656 159.808594 51.765625 158 54.25 C 156.296875 55.726562 154.546875 57.144531 152.75 58.5 C 145.445312 62.402344 137.945312 65.902344 130.25 69 C 126.421875 70.746094 122.757812 72.746094 119.25 75 C 117.8125 76.269531 116.5625 77.683594 115.5 79.25 C 115.078125 81.058594 115.414062 82.726562 116.5 84.25 C 118.277344 85.859375 120.191406 87.277344 122.25 88.5 C 132.542969 93.097656 142.875 97.597656 153.25 102 C 164.230469 106.820312 173.980469 113.40625 182.5 121.75 C 187.992188 129.078125 188.160156 136.578125 183 144.25 C 177.894531 151.523438 171.644531 157.605469 164.25 162.5 C 152.308594 170.109375 140.640625 178.109375 129.25 186.5 C 98.414062 186.917969 67.582031 186.832031 36.75 186.25 C 37.867188 183.71875 39.285156 181.386719 41 179.25 C 51.109375 168.40625 62.859375 159.820312 76.25 153.5 C 87.140625 148.972656 97.976562 144.304688 108.75 139.5 C 113.832031 137.082031 117.582031 133.332031 120 128.25 C 120.027344 124.550781 118.609375 121.464844 115.75 119 C 112.339844 116.378906 108.839844 113.878906 105.25 111.5 C 97.421875 107.421875 89.753906 103.085938 82.25 98.5 C 73.910156 92.464844 72.492188 85.046875 78 76.25 C 84.21875 68.425781 92.136719 63.007812 101.75 60 C 113.257812 56.5 124.757812 53 136.25 49.5 C 140.074219 48.371094 140.574219 46.539062 137.75 44 C 132.402344 41.328125 126.734375 39.660156 120.75 39 C 117.085938 38.527344 113.417969 38.113281 109.75 37.75 Z M 109.75 37.75 "/>
<path style=" stroke:none;fill-rule:evenodd;fill:rgb(96.470588%,81.176472%,47.058824%);fill-opacity:1;" d="M 99.25 43.75 C 107.585938 43.667969 115.917969 43.75 124.25 44 C 124.917969 44.5 124.917969 45 124.25 45.5 C 115.917969 45.832031 107.582031 45.832031 99.25 45.5 C 98.65625 44.925781 98.65625 44.34375 99.25 43.75 Z M 99.25 43.75 "/>
<path style=" stroke:none;fill-rule:evenodd;fill:rgb(96.470588%,81.176472%,47.058824%);fill-opacity:1;" d="M 92.75 48.75 C 101.085938 48.667969 109.417969 48.75 117.75 49 C 118.417969 49.5 118.417969 50 117.75 50.5 C 109.417969 50.832031 101.082031 50.832031 92.75 50.5 C 92.15625 49.925781 92.15625 49.34375 92.75 48.75 Z M 92.75 48.75 "/>
<path style=" stroke:none;fill-rule:evenodd;fill:rgb(96.470588%,81.176472%,46.666667%);fill-opacity:1;" d="M 137.75 72.25 C 147.75 72.167969 157.75 72.25 167.75 72.5 C 168.417969 73.332031 168.417969 74.167969 167.75 75 C 157.75 75.332031 147.75 75.332031 137.75 75 C 137.125 74.085938 137.125 73.167969 137.75 72.25 Z M 137.75 72.25 "/>
<path style=" stroke:none;fill-rule:evenodd;fill:rgb(96.470588%,81.176472%,46.666667%);fill-opacity:1;" d="M 129.25 79.25 C 139.25 79.167969 149.25 79.25 159.25 79.5 C 159.917969 80.332031 159.917969 81.167969 159.25 82 C 149.25 82.332031 139.25 82.332031 129.25 82 C 128.625 81.085938 128.625 80.167969 129.25 79.25 Z M 129.25 79.25 "/>
<path style=" stroke:none;fill-rule:evenodd;fill:rgb(96.470588%,81.176472%,46.666667%);fill-opacity:1;" d="M 137.75 86.25 C 147.75 86.167969 157.75 86.25 167.75 86.5 C 168.417969 87.332031 168.417969 88.167969 167.75 89 C 157.75 89.332031 147.75 89.332031 137.75 89 C 137.125 88.085938 137.125 87.167969 137.75 86.25 Z M 137.75 86.25 "/>
<path style=" stroke:none;fill-rule:evenodd;fill:rgb(96.470588%,81.176472%,46.666667%);fill-opacity:1;" d="M 63.75 116.75 C 73.917969 116.667969 84.085938 116.75 94.25 117 C 95.582031 118 95.582031 119 94.25 120 C 84.082031 120.332031 73.917969 120.332031 63.75 120 C 63.117188 118.917969 63.117188 117.835938 63.75 116.75 Z M 63.75 116.75 "/>
<path style=" stroke:none;fill-rule:evenodd;fill:rgb(96.470588%,81.176472%,46.666667%);fill-opacity:1;" d="M 74.25 125.75 C 84.417969 125.667969 94.585938 125.75 104.75 126 C 106.082031 127 106.082031 128 104.75 129 C 94.582031 129.332031 84.417969 129.332031 74.25 129 C 73.617188 127.917969 73.617188 126.835938 74.25 125.75 Z M 74.25 125.75 "/>
<path style=" stroke:none;fill-rule:evenodd;fill:rgb(96.470588%,81.176472%,46.666667%);fill-opacity:1;" d="M 64.75 134.75 C 74.75 134.667969 84.75 134.75 94.75 135 C 96.082031 136 96.082031 137 94.75 138 C 84.75 138.332031 74.75 138.332031 64.75 138 C 63.46875 136.921875 63.46875 135.839844 64.75 134.75 Z M 64.75 134.75 "/>
</g>
</svg>
