<?xml version="1.0" encoding="UTF-8"?>
<svg xmlns="http://www.w3.org/2000/svg" xmlns:xlink="http://www.w3.org/1999/xlink" width="474px" height="464px" viewBox="0 0 237 232" version="1.1">
<g id="surface1">
<path style=" stroke:none;fill-rule:evenodd;fill:rgb(99.607843%,99.607843%,99.607843%);fill-opacity:1;" d="M -0.25 -0.25 C 78.75 -0.25 157.75 -0.25 236.75 -0.25 C 236.75 77.082031 236.75 154.417969 236.75 231.75 C 157.75 231.75 78.75 231.75 -0.25 231.75 C -0.25 154.417969 -0.25 77.082031 -0.25 -0.25 Z M -0.25 -0.25 "/>
<path style=" stroke:none;fill-rule:evenodd;fill:rgb(22.745098%,51.764709%,52.549022%);fill-opacity:1;" d="M 57.25 26.25 C 84.917969 26.25 112.582031 26.25 140.25 26.25 C 140.167969 41.085938 140.25 55.917969 140.5 70.75 C 155.332031 71.082031 170.167969 71.417969 185 71.75 C 185.332031 111.917969 185.332031 152.082031 185 192.25 C 184.75 192.5 184.5 192.75 184.25 193 C 163 193.082031 141.75 193.167969 120.5 193.25 C 99.0625 193.25 77.726562 192.914062 56.5 192.25 C 56.167969 137.25 56.167969 82.25 56.5 27.25 C 56.859375 26.976562 57.109375 26.644531 57.25 26.25 Z M 57.25 26.25 "/>
<path style=" stroke:none;fill-rule:evenodd;fill:rgb(23.137255%,51.764709%,52.549022%);fill-opacity:1;" d="M 145.75 27.25 C 158.882812 39.546875 171.714844 52.214844 184.25 65.25 C 171.585938 65.832031 158.921875 65.917969 146.25 65.5 C 145.753906 52.785156 145.585938 40.039062 145.75 27.25 Z M 145.75 27.25 "/>
<path style=" stroke:none;fill-rule:evenodd;fill:rgb(99.607843%,99.607843%,99.607843%);fill-opacity:1;" d="M 113.25 83.25 C 118.25 83.25 123.25 83.25 128.25 83.25 C 128.25 103.25 128.25 123.25 128.25 143.25 C 123.25 143.25 118.25 143.25 113.25 143.25 C 113.25 123.25 113.25 103.25 113.25 83.25 Z M 113.25 83.25 "/>
<path style=" stroke:none;fill-rule:evenodd;fill:rgb(99.607843%,99.607843%,99.607843%);fill-opacity:1;" d="M 134.25 100.25 C 139.082031 100.25 143.917969 100.25 148.75 100.25 C 148.75 114.582031 148.75 128.917969 148.75 143.25 C 143.917969 143.25 139.082031 143.25 134.25 143.25 C 134.25 128.917969 134.25 114.582031 134.25 100.25 Z M 134.25 100.25 "/>
<path style=" stroke:none;fill-rule:evenodd;fill:rgb(99.607843%,99.607843%,99.607843%);fill-opacity:1;" d="M 92.75 114.75 C 97.582031 114.75 102.417969 114.75 107.25 114.75 C 107.25 124.25 107.25 133.75 107.25 143.25 C 102.417969 143.25 97.582031 143.25 92.75 143.25 C 92.75 133.75 92.75 124.25 92.75 114.75 Z M 92.75 114.75 "/>
<path style=" stroke:none;fill-rule:evenodd;fill:rgb(99.607843%,99.607843%,99.607843%);fill-opacity:1;" d="M 79.25 148.75 C 106.917969 148.75 134.582031 148.75 162.25 148.75 C 162.25 151.582031 162.25 154.417969 162.25 157.25 C 134.582031 157.25 106.917969 157.25 79.25 157.25 C 79.25 154.417969 79.25 151.582031 79.25 148.75 Z M 79.25 148.75 "/>
</g>
</svg>
